<?xml version="1.0" encoding="UTF-8"?>
<svg id="Layer_2" data-name="Layer 2" xmlns="http://www.w3.org/2000/svg" viewBox="0 0 481.36 510.74">
  <defs>
    <style>
      .cls-1 {
        fill: #fff;
      }
    </style>
  </defs>
  <g id="Layer_1-2" data-name="Layer 1">
    <g id="h2y1Pq.tif">
      <g>
        <path class="cls-1" d="M232.46.02c10.86,1.31,19.65,6.68,27.36,14.34l21.8,21.68c33.38-15.15,77.91-29.11,111.66-14.54,16.4,7.08,25.85,22.13,25.12,40.11-1.13,27.45-19.19,52.94-38.22,73.22,15.74,16.23,22.42,38.49,23.39,61.46l1.03,33.19c13.9,3.5,26.28,7.43,37.87,14.17,20.71,12.05,25.81,36.87,12.4,56.05l7.77,22.93c14.77,3.6,19.71,17.93,18.58,33.43-4.04,55.53-40.24,104.38-88.98,130.48-36.14,19.35-78.54,26.27-119.23,23.68-74.23-5.87-138.55-44.48-168.98-113.19-32.96-1.34-62.27-22.76-73.41-53.42-6.38-17.55-4.88-35.97.99-53.71l-16.34-13.98c-31.76-27.18-7.13-83.51,12.61-116.02,27.47-45.23,62.94-84.91,104.39-117.79C156.81,22.62,185.75,5.24,215.85,0l16.61.02ZM39.72,274.57c10.4-14.54,25.05-23.1,41.87-26.7,21.39-57.09,56.06-109.85,103.73-147.9,24.7-20.52,50.37-38.22,78.47-54.54-10.88-10.64-21.23-27.47-35.17-27.27-24.79-.1-53.62,15.63-74.19,30.2-47.01,33.29-86.03,76.61-114.35,126.79-8.11,14.37-14.38,28.57-18.88,44.2-3.76,13.05-5.22,32.27,2.79,40.75,5.08,5.39,10.22,9.8,15.71,14.48ZM336.83,113.72c-15.1-11.22-31.42-12.11-48.95-14.64l9.85-10.89c-20.72.54-39.64,9.11-58.33,19.8,1.25-6.46,3.99-11.38,5.9-17.4-25.71,13.95-47.28,31.63-65.36,54.15,50.58-32.14,98.82-42.39,156.89-31.02ZM324.45,371.99c-17.48.88-34.01-1.78-50.98-6.72,1.84,13.61,16.79,19.55,29.61,22.13,47.08,9.47,96.27-8.38,136.37-33.42-9.14,14.1-22.37,22.51-36.59,29.61-27.88,13.92-59.19,19.7-90.33,17.39-12.85-.95-24.35-4.75-35.16-10.88-17.66-10-22.27-33.16-9.53-48.84,4.81-5.92,11.96-9.24,19.88-8.17,37.46,5.07,75.31,1.05,110.22-13.35,16.36-6.75,36.77-18.43,44.24-33.63,4.48-9.11,2.17-19.06-6.09-24.95-5.27-3.75-11.53-6.95-17.89-8.86l-21.53-6.46c-5.51-1.66-9.05-5.59-9.4-11.78l-2.33-42.22c-.44-7.91-1.99-15.79-5.12-22.83-4.66-10.47-15.46-15.42-26.35-11.53-4.29,1.53-8.66,4.58-12.1,7.65-24.95,22.26-50.22,9.55-75.89,11.15-18.68,1.17-34.11,14.38-41.48,31.28-9.16,21-5.86,45.11,8.72,62.55l17.67,21.15c2.4,2.87,2.04,6.56-.39,9.2-6.94,7.54-12.77,15.49-16.95,24.97-8.15,18.46-10.62,38.24-7.27,58.22,7.38,44.09,44.93,70.59,88.13,75.69,26.47,3.12,52.31-1.58,76.6-12.3,38.9-17.16,71.87-53.79,73.48-96.79.13-3.36-1.86-8.08-3.9-9.68-2.46-1.93-6.27-2.47-9.61-2.76-1.97-9.27-4.33-18.21-8.2-27.25-43.87,33.13-101.25,42.4-154.53,35.21-6.74-.91-12.3,3.7-12.95,9.47,25.72,8.91,51.96,10.7,78.49,7.97.81.28,1.88.76,1.88,1.25.02,3.33-19.87,6.97-30.71,7.52ZM100.23,377.74c18.3,1.88,33.01-8.47,38.51-25.11,10.79-32.61-.08-80-36.08-86.36-19.98-3.53-40.59,6.26-50.29,24.11-7.91,14.55-9.45,32.26-3.52,47.9,8.1,21.38,28.22,37.09,51.37,39.46Z"/>
        <path class="cls-1" d="M111.79,350.73c-10.86-2.76-13.59-16.42-8.81-28.73,3.1-7.97,1.04-16.37-6.53-20.02s-16.61-.6-19.94,7.67l-3.35,8.32c-.41,1.03-2.71,2.36-3.7,2.37-4.67.01-4.38-19.9,8.63-30.15,8.65-6.81,20.81-6.65,29.2-.22s12.74,17.52,8.73,28.4l-5.43,14.77c-.83,2.27.4,6.96,2.24,8.28,4.78,3.42,9.44-.32,12.4,1.61.75.49.03,3.04-.64,3.83-2.92,3.47-7.8,5.14-12.81,3.87Z"/>
        <g>
          <path class="cls-1" d="M373.25,240.78l-11.62.1c-7.22-11.7-12.26-35.31-2.23-38.14,11.29-3.18,17.06,22.54,13.85,38.03Z"/>
          <path class="cls-1" d="M306.69,253.16c-22.13-9.36-24.96-7.9-47.35-1.53-.8.23-3.41.29-3.36-.47l.22-3.46c14.38-16.39,40.47-16.47,53.73.88.59,1.65,1.13,3.32.81,4.23s-3.07.76-4.04.34Z"/>
          <path class="cls-1" d="M305.59,265.32c-9.64-1.63-18.16-.83-27.11,2.99-.5.11-3.66-.22-3.47-.95l.77-3.09c8.14-8.94,22-10.66,31.6-3.21l1.19,2.7c.33.74-2.08,1.47-2.98,1.57Z"/>
          <path class="cls-1" d="M374.77,268.25c-.89,1.29-3.54,2.8-4.82,2.69s-3.76-1.61-4.51-2.77c-2.62-4.05-2.35-8.98.16-12.81,1.85-2.82,6.25-3.53,8.49-.97,3.31,3.79,3.94,9.12.69,13.86Z"/>
          <path class="cls-1" d="M349.98,278.44c-2.59,1.38-7.4.51-9.89-1.18-2.14-1.45-5.47-5.3-3.96-8.65,2.69-5.97,10.84-4.09,14.63.11,2.56,2.84,3.85,7.25-.78,9.72Z"/>
        </g>
      </g>
    </g>
  </g>
</svg>